<svg width="132" height="50" viewBox="0 0 132 50" fill="none" xmlns="http://www.w3.org/2000/svg">
<rect width="132" height="50" rx="8" fill="#FA7436"/>
<path d="M30.046 24.574C30.718 24.694 31.288 25.048 31.756 25.636C32.224 26.224 32.458 26.89 32.458 27.634C32.458 28.27 32.29 28.846 31.954 29.362C31.63 29.866 31.156 30.268 30.532 30.568C29.908 30.856 29.182 31 28.354 31H23.35V18.49H28.12C28.972 18.49 29.704 18.634 30.316 18.922C30.928 19.21 31.39 19.6 31.702 20.092C32.014 20.572 32.17 21.112 32.17 21.712C32.17 22.432 31.978 23.032 31.594 23.512C31.21 23.992 30.694 24.346 30.046 24.574ZM25.402 23.746H27.94C28.612 23.746 29.134 23.596 29.506 23.296C29.89 22.984 30.082 22.54 30.082 21.964C30.082 21.4 29.89 20.962 29.506 20.65C29.134 20.326 28.612 20.164 27.94 20.164H25.402V23.746ZM28.174 29.326C28.87 29.326 29.416 29.158 29.812 28.822C30.208 28.486 30.406 28.018 30.406 27.418C30.406 26.806 30.196 26.32 29.776 25.96C29.356 25.6 28.798 25.42 28.102 25.42H25.402V29.326H28.174ZM38.9899 31.162C38.0539 31.162 37.2079 30.952 36.4519 30.532C35.6959 30.1 35.1019 29.5 34.6699 28.732C34.2379 27.952 34.0219 27.052 34.0219 26.032C34.0219 25.024 34.2439 24.13 34.6879 23.35C35.1319 22.57 35.7379 21.97 36.5059 21.55C37.2739 21.13 38.1319 20.92 39.0799 20.92C40.0279 20.92 40.8859 21.13 41.6539 21.55C42.4219 21.97 43.0279 22.57 43.4719 23.35C43.9159 24.13 44.1379 25.024 44.1379 26.032C44.1379 27.04 43.9099 27.934 43.4539 28.714C42.9979 29.494 42.3739 30.1 41.5819 30.532C40.8019 30.952 39.9379 31.162 38.9899 31.162ZM38.9899 29.38C39.5179 29.38 40.0099 29.254 40.4659 29.002C40.9339 28.75 41.3119 28.372 41.5999 27.868C41.8879 27.364 42.0319 26.752 42.0319 26.032C42.0319 25.312 41.8939 24.706 41.6179 24.214C41.3419 23.71 40.9759 23.332 40.5199 23.08C40.0639 22.828 39.5719 22.702 39.0439 22.702C38.5159 22.702 38.0239 22.828 37.5679 23.08C37.1239 23.332 36.7699 23.71 36.5059 24.214C36.2419 24.706 36.1099 25.312 36.1099 26.032C36.1099 27.1 36.3799 27.928 36.9199 28.516C37.4719 29.092 38.1619 29.38 38.9899 29.38ZM50.4684 31.162C49.5324 31.162 48.6864 30.952 47.9304 30.532C47.1744 30.1 46.5804 29.5 46.1484 28.732C45.7164 27.952 45.5004 27.052 45.5004 26.032C45.5004 25.024 45.7224 24.13 46.1664 23.35C46.6104 22.57 47.2164 21.97 47.9844 21.55C48.7524 21.13 49.6104 20.92 50.5584 20.92C51.5064 20.92 52.3644 21.13 53.1324 21.55C53.9004 21.97 54.5064 22.57 54.9504 23.35C55.3944 24.13 55.6164 25.024 55.6164 26.032C55.6164 27.04 55.3884 27.934 54.9324 28.714C54.4764 29.494 53.8524 30.1 53.0604 30.532C52.2804 30.952 51.4164 31.162 50.4684 31.162ZM50.4684 29.38C50.9964 29.38 51.4884 29.254 51.9444 29.002C52.4124 28.75 52.7904 28.372 53.0784 27.868C53.3664 27.364 53.5104 26.752 53.5104 26.032C53.5104 25.312 53.3724 24.706 53.0964 24.214C52.8204 23.71 52.4544 23.332 51.9984 23.08C51.5424 22.828 51.0504 22.702 50.5224 22.702C49.9944 22.702 49.5024 22.828 49.0464 23.08C48.6024 23.332 48.2484 23.71 47.9844 24.214C47.7204 24.706 47.5884 25.312 47.5884 26.032C47.5884 27.1 47.8584 27.928 48.3984 28.516C48.9504 29.092 49.6404 29.38 50.4684 29.38ZM61.5689 26.05L66.1409 31H63.3689L59.6969 26.734V31H57.6449V17.68H59.6969V25.42L63.2969 21.082H66.1409L61.5689 26.05ZM82.5655 31H80.5135L74.3395 21.658V31H72.2875V18.472H74.3395L80.5135 27.796V18.472H82.5655V31ZM89.5622 31.162C88.6262 31.162 87.7802 30.952 87.0242 30.532C86.2682 30.1 85.6742 29.5 85.2422 28.732C84.8102 27.952 84.5942 27.052 84.5942 26.032C84.5942 25.024 84.8162 24.13 85.2602 23.35C85.7042 22.57 86.3102 21.97 87.0782 21.55C87.8462 21.13 88.7042 20.92 89.6522 20.92C90.6002 20.92 91.4582 21.13 92.2262 21.55C92.9942 21.97 93.6002 22.57 94.0442 23.35C94.4882 24.13 94.7102 25.024 94.7102 26.032C94.7102 27.04 94.4822 27.934 94.0262 28.714C93.5702 29.494 92.9462 30.1 92.1542 30.532C91.3742 30.952 90.5102 31.162 89.5622 31.162ZM89.5622 29.38C90.0902 29.38 90.5822 29.254 91.0382 29.002C91.5062 28.75 91.8842 28.372 92.1722 27.868C92.4602 27.364 92.6042 26.752 92.6042 26.032C92.6042 25.312 92.4662 24.706 92.1902 24.214C91.9142 23.71 91.5482 23.332 91.0922 23.08C90.6362 22.828 90.1442 22.702 89.6162 22.702C89.0882 22.702 88.5962 22.828 88.1402 23.08C87.6962 23.332 87.3422 23.71 87.0782 24.214C86.8142 24.706 86.6822 25.312 86.6822 26.032C86.6822 27.1 86.9522 27.928 87.4922 28.516C88.0442 29.092 88.7342 29.38 89.5622 29.38ZM110.059 21.082L106.981 31H104.821L102.823 23.674L100.825 31H98.6647L95.5687 21.082H97.6567L99.7267 29.056L101.833 21.082H103.975L105.991 29.02L108.043 21.082H110.059Z" fill="white"/>
</svg>
