<svg width="132" height="50" viewBox="0 0 132 50" fill="none" xmlns="http://www.w3.org/2000/svg">
<rect x="-0.000244141" width="132" height="50" rx="8" fill="#FA7436"/>
<path d="M30.7678 31.112C30.0318 31.112 29.3704 30.984 28.7838 30.728C28.2078 30.4613 27.7544 30.0987 27.4238 29.64C27.0931 29.1707 26.9224 28.632 26.9118 28.024H28.4638C28.5171 28.5467 28.7304 28.9893 29.1038 29.352C29.4878 29.704 30.0424 29.88 30.7678 29.88C31.4611 29.88 32.0051 29.7093 32.3998 29.368C32.8051 29.016 33.0078 28.568 33.0078 28.024C33.0078 27.5973 32.8904 27.2507 32.6558 26.984C32.4211 26.7173 32.1278 26.5147 31.7758 26.376C31.4238 26.2373 30.9491 26.088 30.3518 25.928C29.6158 25.736 29.0238 25.544 28.5758 25.352C28.1384 25.16 27.7598 24.8613 27.4398 24.456C27.1304 24.04 26.9758 23.4853 26.9758 22.792C26.9758 22.184 27.1304 21.6453 27.4398 21.176C27.7491 20.7067 28.1811 20.344 28.7358 20.088C29.3011 19.832 29.9464 19.704 30.6718 19.704C31.7171 19.704 32.5704 19.9653 33.2318 20.488C33.9038 21.0107 34.2824 21.704 34.3678 22.568H32.7678C32.7144 22.1413 32.4904 21.768 32.0958 21.448C31.7011 21.1173 31.1784 20.952 30.5278 20.952C29.9198 20.952 29.4238 21.112 29.0398 21.432C28.6558 21.7413 28.4638 22.1787 28.4638 22.744C28.4638 23.1493 28.5758 23.48 28.7998 23.736C29.0344 23.992 29.3171 24.1893 29.6478 24.328C29.9891 24.456 30.4638 24.6053 31.0718 24.776C31.8078 24.9787 32.3998 25.1813 32.8478 25.384C33.2958 25.576 33.6798 25.88 33.9998 26.296C34.3198 26.7013 34.4798 27.256 34.4798 27.96C34.4798 28.504 34.3358 29.016 34.0478 29.496C33.7598 29.976 33.3331 30.3653 32.7678 30.664C32.2024 30.9627 31.5358 31.112 30.7678 31.112ZM44.3984 22.232V31H42.9424V29.704C42.665 30.152 42.2757 30.504 41.7744 30.76C41.2837 31.0053 40.7397 31.128 40.1424 31.128C39.4597 31.128 38.8464 30.9893 38.3024 30.712C37.7584 30.424 37.3264 29.9973 37.0064 29.432C36.697 28.8667 36.5424 28.1787 36.5424 27.368V22.232H37.9824V27.176C37.9824 28.04 38.201 28.7067 38.6384 29.176C39.0757 29.6347 39.673 29.864 40.4304 29.864C41.209 29.864 41.8224 29.624 42.2704 29.144C42.7184 28.664 42.9424 27.9653 42.9424 27.048V22.232H44.3984ZM48.3128 23.864C48.6114 23.3413 49.0488 22.9147 49.6248 22.584C50.2008 22.2533 50.8568 22.088 51.5928 22.088C52.3821 22.088 53.0914 22.2747 53.7208 22.648C54.3501 23.0213 54.8461 23.5493 55.2088 24.232C55.5714 24.904 55.7528 25.688 55.7528 26.584C55.7528 27.4693 55.5714 28.2587 55.2088 28.952C54.8461 29.6453 54.3448 30.184 53.7048 30.568C53.0754 30.952 52.3714 31.144 51.5928 31.144C50.8354 31.144 50.1688 30.9787 49.5928 30.648C49.0274 30.3173 48.6008 29.896 48.3128 29.384V31H46.8568V19.16H48.3128V23.864ZM54.2648 26.584C54.2648 25.9227 54.1314 25.3467 53.8648 24.856C53.5981 24.3653 53.2354 23.992 52.7768 23.736C52.3288 23.48 51.8328 23.352 51.2888 23.352C50.7554 23.352 50.2594 23.4853 49.8008 23.752C49.3528 24.008 48.9901 24.3867 48.7128 24.888C48.4461 25.3787 48.3128 25.9493 48.3128 26.6C48.3128 27.2613 48.4461 27.8427 48.7128 28.344C48.9901 28.8347 49.3528 29.2133 49.8008 29.48C50.2594 29.736 50.7554 29.864 51.2888 29.864C51.8328 29.864 52.3288 29.736 52.7768 29.48C53.2354 29.2133 53.5981 28.8347 53.8648 28.344C54.1314 27.8427 54.2648 27.256 54.2648 26.584ZM60.7733 31.144C60.1013 31.144 59.4986 31.032 58.9653 30.808C58.4319 30.5733 58.0106 30.2533 57.7013 29.848C57.3919 29.432 57.2213 28.9573 57.1893 28.424H58.6933C58.7359 28.8613 58.9386 29.2187 59.3013 29.496C59.6746 29.7733 60.1599 29.912 60.7573 29.912C61.3119 29.912 61.7493 29.7893 62.0693 29.544C62.3893 29.2987 62.5493 28.9893 62.5493 28.616C62.5493 28.232 62.3786 27.9493 62.0373 27.768C61.6959 27.576 61.1679 27.3893 60.4533 27.208C59.8026 27.0373 59.2693 26.8667 58.8533 26.696C58.4479 26.5147 58.0959 26.2533 57.7973 25.912C57.5093 25.56 57.3653 25.1013 57.3653 24.536C57.3653 24.088 57.4986 23.6773 57.7653 23.304C58.0319 22.9307 58.4106 22.6373 58.9013 22.424C59.3919 22.2 59.9519 22.088 60.5813 22.088C61.5519 22.088 62.3359 22.3333 62.9333 22.824C63.5306 23.3147 63.8506 23.9867 63.8933 24.84H62.4373C62.4053 24.3813 62.2186 24.0133 61.8773 23.736C61.5466 23.4587 61.0986 23.32 60.5333 23.32C60.0106 23.32 59.5946 23.432 59.2853 23.656C58.9759 23.88 58.8213 24.1733 58.8213 24.536C58.8213 24.824 58.9119 25.064 59.0933 25.256C59.2853 25.4373 59.5199 25.5867 59.7973 25.704C60.0853 25.8107 60.4799 25.9333 60.9813 26.072C61.6106 26.2427 62.1226 26.4133 62.5173 26.584C62.9119 26.744 63.2479 26.9893 63.5253 27.32C63.8133 27.6507 63.9626 28.0827 63.9733 28.616C63.9733 29.096 63.8399 29.528 63.5733 29.912C63.3066 30.296 62.9279 30.6 62.4373 30.824C61.9573 31.0373 61.4026 31.144 60.7733 31.144ZM65.4846 26.6C65.4846 25.6933 65.666 24.904 66.0286 24.232C66.3913 23.5493 66.8926 23.0213 67.5326 22.648C68.1833 22.2747 68.9246 22.088 69.7566 22.088C70.834 22.088 71.7193 22.3493 72.4126 22.872C73.1166 23.3947 73.5806 24.12 73.8046 25.048H72.2366C72.0873 24.5147 71.794 24.0933 71.3566 23.784C70.93 23.4747 70.3966 23.32 69.7566 23.32C68.9246 23.32 68.2526 23.608 67.7406 24.184C67.2286 24.7493 66.9726 25.5547 66.9726 26.6C66.9726 27.656 67.2286 28.472 67.7406 29.048C68.2526 29.624 68.9246 29.912 69.7566 29.912C70.3966 29.912 70.93 29.7627 71.3566 29.464C71.7833 29.1653 72.0766 28.7387 72.2366 28.184H73.8046C73.57 29.08 73.1006 29.8 72.3966 30.344C71.6926 30.8773 70.8126 31.144 69.7566 31.144C68.9246 31.144 68.1833 30.9573 67.5326 30.584C66.8926 30.2107 66.3913 29.6827 66.0286 29C65.666 28.3173 65.4846 27.5173 65.4846 26.6ZM77.2034 23.656C77.4594 23.1547 77.822 22.7653 78.2914 22.488C78.7714 22.2107 79.3527 22.072 80.0354 22.072V23.576H79.6514C78.0194 23.576 77.2034 24.4613 77.2034 26.232V31H75.7474V22.232H77.2034V23.656ZM82.4681 20.808C82.1908 20.808 81.9561 20.712 81.7641 20.52C81.5721 20.328 81.4761 20.0933 81.4761 19.816C81.4761 19.5387 81.5721 19.304 81.7641 19.112C81.9561 18.92 82.1908 18.824 82.4681 18.824C82.7348 18.824 82.9588 18.92 83.1401 19.112C83.3321 19.304 83.4281 19.5387 83.4281 19.816C83.4281 20.0933 83.3321 20.328 83.1401 20.52C82.9588 20.712 82.7348 20.808 82.4681 20.808ZM83.1721 22.232V31H81.7161V22.232H83.1721ZM87.1096 23.864C87.4083 23.3413 87.8456 22.9147 88.4216 22.584C88.9976 22.2533 89.6536 22.088 90.3896 22.088C91.179 22.088 91.8883 22.2747 92.5176 22.648C93.147 23.0213 93.643 23.5493 94.0056 24.232C94.3683 24.904 94.5496 25.688 94.5496 26.584C94.5496 27.4693 94.3683 28.2587 94.0056 28.952C93.643 29.6453 93.1416 30.184 92.5016 30.568C91.8723 30.952 91.1683 31.144 90.3896 31.144C89.6323 31.144 88.9656 30.9787 88.3896 30.648C87.8243 30.3173 87.3976 29.896 87.1096 29.384V31H85.6536V19.16H87.1096V23.864ZM93.0616 26.584C93.0616 25.9227 92.9283 25.3467 92.6616 24.856C92.395 24.3653 92.0323 23.992 91.5736 23.736C91.1256 23.48 90.6296 23.352 90.0856 23.352C89.5523 23.352 89.0563 23.4853 88.5976 23.752C88.1496 24.008 87.787 24.3867 87.5096 24.888C87.243 25.3787 87.1096 25.9493 87.1096 26.6C87.1096 27.2613 87.243 27.8427 87.5096 28.344C87.787 28.8347 88.1496 29.2133 88.5976 29.48C89.0563 29.736 89.5523 29.864 90.0856 29.864C90.6296 29.864 91.1256 29.736 91.5736 29.48C92.0323 29.2133 92.395 28.8347 92.6616 28.344C92.9283 27.8427 93.0616 27.256 93.0616 26.584ZM104.466 26.28C104.466 26.5573 104.45 26.8507 104.418 27.16H97.4101C97.4635 28.024 97.7568 28.7013 98.2901 29.192C98.8341 29.672 99.4901 29.912 100.258 29.912C100.887 29.912 101.41 29.768 101.826 29.48C102.253 29.1813 102.551 28.7867 102.722 28.296H104.29C104.055 29.1387 103.586 29.8267 102.882 30.36C102.178 30.8827 101.303 31.144 100.258 31.144C99.4261 31.144 98.6795 30.9573 98.0181 30.584C97.3675 30.2107 96.8555 29.6827 96.4821 29C96.1088 28.3067 95.9221 27.5067 95.9221 26.6C95.9221 25.6933 96.1035 24.8987 96.4661 24.216C96.8288 23.5333 97.3355 23.0107 97.9861 22.648C98.6475 22.2747 99.4048 22.088 100.258 22.088C101.09 22.088 101.826 22.2693 102.466 22.632C103.106 22.9947 103.597 23.496 103.938 24.136C104.29 24.7653 104.466 25.48 104.466 26.28ZM102.962 25.976C102.962 25.4213 102.839 24.9467 102.594 24.552C102.349 24.1467 102.013 23.8427 101.586 23.64C101.17 23.4267 100.706 23.32 100.194 23.32C99.4581 23.32 98.8288 23.5547 98.3061 24.024C97.7941 24.4933 97.5008 25.144 97.4261 25.976H102.962Z" fill="white"/>
</svg>
